<svg viewBox="0 0 48 48" fill="none" xmlns="http://www.w3.org/2000/svg">
<path d="M24 28C28.412 28 32 24.412 32 20C32 15.588 28.412 12 24 12C19.588 12 16 15.588 16 20C16 24.412 19.588 28 24 28ZM24 16C26.206 16 28 17.794 28 20C28 22.206 26.206 24 24 24C21.794 24 20 22.206 20 20C20 17.794 21.794 16 24 16Z" fill="#3c4858"/>
<path d="M22.84 43.628C23.1785 43.8697 23.584 43.9997 24 43.9997C24.4159 43.9997 24.8215 43.8697 25.16 43.628C25.768 43.198 40.058 32.88 40 20C40 11.178 32.822 4 24 4C15.178 4 7.99999 11.178 7.99999 19.99C7.94199 32.88 22.232 43.198 22.84 43.628ZM24 8C30.618 8 36 13.382 36 20.01C36.042 28.886 27.224 36.856 24 39.47C20.778 36.854 11.958 28.882 12 20C12 13.382 17.382 8 24 8Z" fill="#3c4858"/>
</svg>
